<?xml version="1.0" encoding="UTF-8" standalone="no"?>
<!-- Generator: Adobe Illustrator 22.0.0, SVG Export Plug-In . SVG Version: 6.00 Build 0)  -->

<svg
   xmlns:dc="http://purl.org/dc/elements/1.1/"
   xmlns:cc="http://creativecommons.org/ns#"
   xmlns:rdf="http://www.w3.org/1999/02/22-rdf-syntax-ns#"
   xmlns:svg="http://www.w3.org/2000/svg"
   xmlns="http://www.w3.org/2000/svg"
   xmlns:sodipodi="http://sodipodi.sourceforge.net/DTD/sodipodi-0.dtd"
   xmlns:inkscape="http://www.inkscape.org/namespaces/inkscape"
   version="1.1"
   id="Layer_1"
   x="0px"
   y="0px"
   width="35cm"
   height="35cm"
   viewBox="0 0 349.99999 1322.8346"
   xml:space="preserve"
   sodipodi:docname="tshirt-back3-mit-pfaden.svg"
   inkscape:version="0.92.1 r15371"
   inkscape:export-filename="/home/user/Projects/reproducible/reproducible-promo-material/tshirts/2018/tshirt-back3.png"
   inkscape:export-xdpi="299"
   inkscape:export-ydpi="299"><metadata
     id="metadata42"><rdf:RDF><cc:Work
         rdf:about=""><dc:format>image/svg+xml</dc:format><dc:type
           rdf:resource="http://purl.org/dc/dcmitype/StillImage" /><dc:title></dc:title></cc:Work></rdf:RDF></metadata><defs
     id="defs40" /><sodipodi:namedview
     pagecolor="#ffffff"
     bordercolor="#666666"
     borderopacity="1"
     objecttolerance="10"
     gridtolerance="10"
     guidetolerance="10"
     inkscape:pageopacity="0"
     inkscape:pageshadow="2"
     inkscape:window-width="1524"
     inkscape:window-height="1043"
     id="namedview38"
     showgrid="false"
     units="cm"
     inkscape:document-units="cm"
     inkscape:zoom="0.5"
     inkscape:cx="224.54733"
     inkscape:cy="647.53241"
     inkscape:window-x="2"
     inkscape:window-y="1081"
     inkscape:window-maximized="0"
     inkscape:current-layer="Layer_1" /><style
     type="text/css"
     id="style2">
	.st0{fill:#1E5B96;}
	.st1{fill:#2B89D6;}
</style><g
     id="g74"
     transform="translate(-1.5945886e-8,52)"><g
       inkscape:transform-center-y="15.999999"
       inkscape:transform-center-x="3.9999999"
       transform="matrix(0.72042516,0,0,0.72042516,-403.42675,1159.6644)"
       id="g35"><g
         id="g33"><g
           transform="rotate(90,40.7,44.8)"
           id="g26_2_"><g
             id="circle2_2_"><path
               style="fill:#1e5b96"
               d="m 74.300001,-33.5 a 12.6,12.6 0 0 1 -12.6,12.6 A 12.6,12.6 0 0 1 49.1,-33.5 a 12.6,12.6 0 0 1 12.600001,-12.6 12.6,12.6 0 0 1 12.6,12.6 z"
               id="circle4" /></g><g
             id="circle4_2_"><path
               style="fill:#1e5b96"
               d="m 74.300001,72.900002 a 12.6,12.6 0 0 1 -12.6,12.6 12.6,12.6 0 0 1 -12.600001,-12.6 12.6,12.6 0 0 1 12.600001,-12.600001 12.6,12.6 0 0 1 12.6,12.600001 z"
               id="circle7" /></g><g
             id="circle6_2_"><path
               style="fill:#1e5b96"
               d="m 127.5,19.700001 a 12.6,12.6 0 0 1 -12.6,12.6 12.6,12.6 0 0 1 -12.6,-12.6 12.6,12.6 0 0 1 12.6,-12.6000006 12.6,12.6 0 0 1 12.6,12.6000006 z"
               id="circle10" /></g><g
             id="circle8_2_"><path
               style="fill:#1e5b96"
               d="m 21.1,19.700001 a 12.6,12.6 0 0 1 -12.6,12.6 12.6,12.6 0 0 1 -12.6000004,-12.6 A 12.6,12.6 0 0 1 8.5,7.1000004 12.6,12.6 0 0 1 21.1,19.700001 Z"
               id="circle13" /></g><g
             id="g12_2_"><g
               id="polygon10_2_"><path
                 style="fill:#2b89d6"
                 d="M 66.3,-8.9 80.2,5 h 20.3 V -15.4 L 86.6,-29.3 v 20.4 z"
                 id="polygon16" /></g></g><g
             id="g16_2_"><g
               id="polygon14_2_"><path
                 style="fill:#2b89d6"
                 d="M 12.7,44.6 26.6,58.5 H 47 V 38.2 L 33.1,24.3 v 20.3 z"
                 id="polygon20" /></g></g><g
             id="g20_2_"><g
               id="polygon18_2_"><path
                 style="fill:#2b89d6"
                 d="m 86.5,68.7 13.9,-13.9 0.1,-20.4 H 80.1 L 66.2,48.3 86.6,48.2 Z"
                 id="polygon24" /></g></g><g
             id="g24_2_"><g
               id="polygon22_2_"><path
                 style="fill:#2b89d6"
                 d="M 33,15.1 47,1.1 V -19.2 H 26.6 l -13.9,14 20.4,-0.1 z"
                 id="polygon28" /></g></g></g></g></g><g
       aria-label="https://reproducible-builds.org"
       style="font-style:normal;font-variant:normal;font-weight:normal;font-stretch:normal;font-size:74.66666412px;line-height:1.25;font-family:Overpass;-inkscape-font-specification:'Overpass, Normal';font-variant-ligatures:normal;font-variant-caps:normal;font-variant-numeric:normal;font-feature-settings:normal;text-align:start;letter-spacing:0px;word-spacing:0px;writing-mode:lr-tb;text-anchor:start;fill:#d62ba7;fill-opacity:1;stroke:none"
       id="text36"><path
         d="m -278.21996,1228.8346 v -50.9227 l 6.496,-2.9866 v 19.712 q 3.50933,-4.8534 9.856,-4.8534 6.71999,0 10.15466,4.1067 3.50933,4.032 3.50933,12.992 v 21.952 h -6.496 v -23.072 q 0,-5.152 -2.23999,-7.5413 -2.16534,-2.464 -5.97334,-2.464 -8.81066,0 -8.81066,9.856 v 23.2213 z"
         style="fill:#1e5b96;fill-opacity:1"
         id="path84" /><path
         d="m -225.91596,1229.7306 q -8.064,0 -8.064,-9.1093 v -24.2667 h -6.19734 v -5.6747 h 6.19734 v -12.6186 l 6.496,-3.136 v 15.7546 h 9.408 v 5.6747 h -9.408 v 22.1013 q 0,2.5387 0.82133,3.8827 0.82133,1.344 3.136,1.344 2.53867,0 5.67467,-2.016 l -0.74667,6.3467 q -3.28533,1.7173 -7.31733,1.7173 z"
         style="fill:#1e5b96;fill-opacity:1"
         id="path86" /><path
         d="m -199.22846,1229.7306 q -8.064,0 -8.064,-9.1093 v -24.2667 h -6.19734 v -5.6747 h 6.19734 v -12.6186 l 6.496,-3.136 v 15.7546 h 9.408 v 5.6747 h -9.408 v 22.1013 q 0,2.5387 0.82133,3.8827 0.82133,1.344 3.136,1.344 2.53867,0 5.67467,-2.016 l -0.74667,6.3467 q -3.28533,1.7173 -7.31733,1.7173 z"
         style="fill:#1e5b96;fill-opacity:1"
         id="path88" /><path
         d="m -165.40097,1229.7306 q -5.97333,0 -9.78133,-4.48 v 15.6053 l -6.496,3.0614 v -53.2374 h 6.496 v 3.2107 q 4.10667,-4.1067 9.78133,-4.1067 7.24267,0 11.49867,5.376 4.256,5.376 4.256,14.56 0,9.3334 -4.33067,14.7094 -4.33066,5.3013 -11.424,5.3013 z m -0.82133,-6.048 q 4.77867,0 7.31733,-3.584 2.61334,-3.6587 2.61334,-10.3787 0,-6.3466 -2.688,-10.1546 -2.61334,-3.808 -7.24267,-3.808 -6.048,0 -8.96,5.152 v 17.6213 q 3.95733,5.152 8.96,5.152 z"
         style="fill:#1e5b96;fill-opacity:1"
         id="path90" /><path
         d="m -128.2578,1229.7306 q -4.10666,0 -7.84,-1.7173 -3.65866,-1.792 -5.97333,-4.704 l 4.62933,-3.9574 q 4.256,4.5547 9.33334,4.5547 3.21066,0 5.152,-1.1947 1.94133,-1.2693 1.94133,-3.6586 0,-1.792 -1.41867,-3.2107 -1.41866,-1.4933 -2.912,-2.1653 -1.49333,-0.7467 -4.40533,-1.8667 -5.824,-2.1653 -8.81067,-4.8533 -2.98666,-2.688 -2.98666,-7.0934 0,-4.6293 3.584,-7.3173 3.65866,-2.7627 9.25866,-2.7627 7.98934,0 12.84267,5.7494 l -4.48,3.7333 q -3.50933,-3.6587 -8.43733,-3.6587 -2.912,0 -4.62934,1.12 -1.71733,1.12 -1.71733,3.136 0,1.12 0.52267,2.0907 0.59733,0.896 2.016,1.7173 1.49333,0.8214 2.31466,1.2694 0.896,0.3733 3.21067,1.2693 6.048,2.1653 9.184,4.928 3.21066,2.7627 3.21066,7.7653 0,5.0774 -3.65866,7.9894 -3.65867,2.8373 -9.93067,2.8373 z"
         style="fill:#1e5b96;fill-opacity:1"
         id="path92" /><path
         d="m -98.708464,1201.4319 q -1.493336,1.4934 -3.658666,1.4934 -2.16533,0 -3.65867,-1.4934 -1.49333,-1.568 -1.49333,-3.584 0,-2.0906 1.49333,-3.584 1.49334,-1.568 3.65867,-1.568 2.16533,0 3.658666,1.568 1.568,1.568 1.568,3.584 0,2.016 -1.568,3.584 z m 0,26.88 q -1.493336,1.4934 -3.658666,1.4934 -2.16533,0 -3.65867,-1.4934 -1.49333,-1.568 -1.49333,-3.584 0,-2.0906 1.49333,-3.584 1.49334,-1.568 3.65867,-1.568 2.16533,0 3.658666,1.568 1.568,1.568 1.568,3.584 0,2.016 -1.568,3.584 z"
         style="fill:#1e5b96;fill-opacity:1"
         id="path94" /><path
         d="m -94.556302,1238.5413 29.418665,-62.8694 h 6.421333 l -29.343999,62.8694 z"
         style="fill:#1e5b96;fill-opacity:1"
         id="path96" /><path
         d="m -57.952131,1238.5413 29.418666,-62.8694 h 6.421333 l -29.343999,62.8694 z"
         style="fill:#1e5b96;fill-opacity:1"
         id="path98" /><path
         d="m -14.553308,1228.8346 v -38.1547 h 6.496 v 5.0027 q 2.6879999,-5.8987 9.03466639,-5.8987 3.58399991,0 5.89866651,1.9414 l -0.9706667,6.1226 q -2.3893332,-1.6426 -5.45066646,-1.6426 -3.35999984,0 -5.97333314,2.6133 -2.5386666,2.6133 -2.5386666,8.512 v 21.504 z"
         style="fill:#2b89d6;fill-opacity:1"
         id="path100" /><path
         d="m 29.176869,1229.7306 q -7.765333,0 -12.394667,-5.5253 -4.554666,-5.6 -4.554666,-14.4854 0,-9.3333 4.629333,-14.6346 4.629333,-5.3014 12.32,-5.3014 6.869333,0 11.274666,4.6294 4.48,4.5546 4.48,13.5146 0,2.0907 -0.224,4.3307 H 18.872869 q 0.373333,5.2267 3.210666,8.4373 2.912,3.136 7.242667,3.136 4.778666,0 8.213333,-3.4346 l 3.957333,4.4053 q -4.928,4.928 -12.319999,4.928 z m -10.378667,-22.9973 h 19.562666 q -0.07467,-5.8987 -2.837333,-8.512 -2.688,-2.688 -6.346666,-2.688 -4.405334,0 -7.242667,2.8373 -2.837333,2.7627 -3.136,8.3627 z"
         style="fill:#2b89d6;fill-opacity:1"
         id="path102" /><path
         d="m 70.849025,1229.7306 q -5.973333,0 -9.781333,-4.48 v 15.6053 l -6.496,3.0614 v -53.2374 h 6.496 v 3.2107 q 4.106667,-4.1067 9.781333,-4.1067 7.242666,0 11.498666,5.376 4.256,5.376 4.256,14.56 0,9.3334 -4.330666,14.7094 -4.330667,5.3013 -11.424,5.3013 z m -0.821333,-6.048 q 4.778666,0 7.317333,-3.584 2.613333,-3.6587 2.613333,-10.3787 0,-6.3466 -2.688,-10.1546 -2.613333,-3.808 -7.242666,-3.808 -6.048,0 -8.96,5.152 v 17.6213 q 3.957333,5.152 8.96,5.152 z"
         style="fill:#2b89d6;fill-opacity:1"
         id="path104" /><path
         d="m 96.717536,1228.8346 v -38.1547 h 6.496004 v 5.0027 q 2.688,-5.8987 9.03466,-5.8987 3.584,0 5.89867,1.9414 l -0.97067,6.1226 q -2.38933,-1.6426 -5.45066,-1.6426 -3.36,0 -5.97334,2.6133 -2.53866,2.6133 -2.53866,8.512 v 21.504 z"
         style="fill:#2b89d6;fill-opacity:1"
         id="path106" /><path
         d="m 152.69301,1224.4293 q -4.55466,5.3013 -12.32,5.3013 -7.76533,0 -12.31999,-5.3013 -4.55467,-5.3014 -4.55467,-14.6347 0,-9.3333 4.55467,-14.6347 4.55466,-5.376 12.31999,-5.376 7.76534,0 12.32,5.3014 4.55467,5.3013 4.55467,14.6346 0,9.3334 -4.55467,14.7094 z m -19.93599,-4.4054 q 2.76266,3.6587 7.61599,3.6587 4.85334,0 7.54134,-3.6587 2.76266,-3.7333 2.76266,-10.304 0,-6.496 -2.76266,-10.2293 -2.688,-3.7333 -7.54134,-3.7333 -4.85333,0 -7.61599,3.7333 -2.688,3.6587 -2.688,10.304 0,6.496 2.688,10.2293 z"
         style="fill:#2b89d6;fill-opacity:1"
         id="path108" /><path
         d="m 180.96136,1229.7306 q -7.24267,0 -11.49867,-5.376 -4.256,-5.376 -4.256,-14.6347 0,-9.3333 4.256,-14.6346 4.33067,-5.3014 11.49867,-5.3014 5.6,0 9.632,3.584 v -15.3813 l 6.496,-3.0613 v 53.9093 h -6.496 v -2.9867 q -3.73334,3.8827 -9.632,3.8827 z m 0.896,-6.048 q 5.67466,0 8.736,-5.152 v -17.92 q -3.06134,-4.8533 -8.736,-4.8533 -4.85333,0 -7.46667,3.6586 -2.61333,3.584 -2.61333,10.304 0,6.048 2.688,10.0054 2.76267,3.9573 7.392,3.9573 z"
         style="fill:#2b89d6;fill-opacity:1"
         id="path110" /><path
         d="m 232.59336,1228.8346 v -3.6587 q -3.50934,4.5547 -9.632,4.5547 -6.944,0 -10.45333,-4.032 -3.43467,-4.032 -3.43467,-12.992 v -22.0267 h 6.496 v 22.9974 q 0,5.152 2.16533,7.616 2.24,2.3893 6.048,2.3893 8.81067,0 8.81067,-9.856 v -23.1467 h 6.496 v 38.1547 z"
         style="fill:#2b89d6;fill-opacity:1"
         id="path112" /><path
         d="m 265.03599,1229.7306 q -7.31733,0 -11.57333,-5.2267 -4.256,-5.3013 -4.256,-14.7093 0,-9.408 4.256,-14.7093 4.33067,-5.3014 11.872,-5.3014 10.15467,0 13.36533,8.8854 l -6.12266,2.24 q -1.94134,-5.0774 -7.168,-5.0774 -4.77867,0 -7.168,3.6587 -2.38934,3.6587 -2.38934,10.304 0,6.5707 2.38934,10.2293 2.38933,3.584 6.944,3.584 5.97333,0 7.76533,-5.6746 l 6.048,2.016 q -1.41867,4.704 -5.07733,7.2426 -3.584,2.5387 -8.88534,2.5387 z"
         style="fill:#2b89d6;fill-opacity:1"
         id="path114" /><path
         d="m 294.97737,1182.6159 q -1.19467,1.12 -2.912,1.12 -1.71733,0 -2.912,-1.1946 -1.12,-1.1947 -1.12,-2.8374 0,-1.7173 1.19467,-2.912 1.19466,-1.2693 2.83733,-1.2693 1.71733,0 2.912,1.2693 1.19467,1.1947 1.19467,2.912 0,1.7174 -1.19467,2.912 z m -6.12267,46.2187 v -38.1547 h 6.496 v 38.1547 z"
         style="fill:#2b89d6;fill-opacity:1"
         id="path116" /><path
         d="m 324.01568,1229.7306 q -5.45066,0 -9.78133,-4.1813 v 3.2853 h -6.496 v -50.848 l 6.496,-3.0613 v 19.04 q 3.808,-4.1814 9.55733,-4.1814 7.168,0 11.49867,5.3014 4.33066,5.3013 4.33066,14.6346 0,9.632 -4.18133,14.8587 -4.10667,5.152 -11.424,5.152 z m -0.896,-6.048 q 4.85333,0 7.31733,-3.6587 2.53867,-3.7333 2.53867,-10.304 0,-6.7946 -2.53867,-10.3786 -2.464,-3.584 -7.31733,-3.584 -2.98667,0 -5.376,1.568 -2.38933,1.568 -3.50933,3.5093 v 17.696 q 1.41867,2.3893 3.808,3.808 2.38933,1.344 5.07733,1.344 z"
         style="fill:#2b89d6;fill-opacity:1"
         id="path118" /><path
         d="m 350.11168,1228.8346 v -50.848 l 6.496,-3.0613 v 53.9093 z"
         style="fill:#2b89d6;fill-opacity:1"
         id="path120" /><path
         d="m 383.98937,1229.7306 q -7.76533,0 -12.39467,-5.5253 -4.55466,-5.6 -4.55466,-14.4854 0,-9.3333 4.62933,-14.6346 4.62933,-5.3014 12.32,-5.3014 6.86933,0 11.27466,4.6294 4.48,4.5546 4.48,13.5146 0,2.0907 -0.224,4.3307 h -25.83466 q 0.37333,5.2267 3.21067,8.4373 2.912,3.136 7.24266,3.136 4.77867,0 8.21333,-3.4346 l 3.95734,4.4053 q -4.928,4.928 -12.32,4.928 z m -10.37867,-22.9973 h 19.56267 q -0.0747,-5.8987 -2.83733,-8.512 -2.688,-2.688 -6.34667,-2.688 -4.40533,0 -7.24267,2.8373 -2.83733,2.7627 -3.136,8.3627 z"
         style="fill:#2b89d6;fill-opacity:1"
         id="path122" /><path
         d="m 409.38416,1209.7199 v -6.272 h 17.472 v 6.272 z"
         style="fill:#1e5b96;fill-opacity:1"
         id="path124" /><path
         d="m 455.41149,1229.7306 q -5.45066,0 -9.78133,-4.1813 v 3.2853 h -6.496 v -50.848 l 6.496,-3.0613 v 19.04 q 3.808,-4.1814 9.55733,-4.1814 7.168,0 11.49867,5.3014 4.33067,5.3013 4.33067,14.6346 0,9.632 -4.18134,14.8587 -4.10666,5.152 -11.424,5.152 z m -0.896,-6.048 q 4.85334,0 7.31734,-3.6587 2.53866,-3.7333 2.53866,-10.304 0,-6.7946 -2.53866,-10.3786 -2.464,-3.584 -7.31734,-3.584 -2.98666,0 -5.376,1.568 -2.38933,1.568 -3.50933,3.5093 v 17.696 q 1.41867,2.3893 3.808,3.808 2.38933,1.344 5.07733,1.344 z"
         style="fill:#2b89d6;fill-opacity:1"
         id="path126" /><path
         d="m 504.28083,1228.8346 v -3.6587 q -3.50934,4.5547 -9.632,4.5547 -6.944,0 -10.45334,-4.032 -3.43466,-4.032 -3.43466,-12.992 v -22.0267 h 6.496 v 22.9974 q 0,5.152 2.16533,7.616 2.24,2.3893 6.048,2.3893 8.81067,0 8.81067,-9.856 v -23.1467 h 6.496 v 38.1547 z"
         style="fill:#2b89d6;fill-opacity:1"
         id="path128" /><path
         d="m 529.33149,1182.6159 q -1.19466,1.12 -2.912,1.12 -1.71733,0 -2.91199,-1.1946 -1.12,-1.1947 -1.12,-2.8374 0,-1.7173 1.19466,-2.912 1.19467,-1.2693 2.83733,-1.2693 1.71734,0 2.912,1.2693 1.19467,1.1947 1.19467,2.912 0,1.7174 -1.19467,2.912 z m -6.12266,46.2187 v -38.1547 h 6.496 v 38.1547 z"
         style="fill:#2b89d6;fill-opacity:1"
         id="path130" /><path
         d="m 542.46587,1228.8346 v -50.848 l 6.496,-3.0613 v 53.9093 z"
         style="fill:#2b89d6;fill-opacity:1"
         id="path132" /><path
         d="m 575.14883,1229.7306 q -7.24267,0 -11.49867,-5.376 -4.256,-5.376 -4.256,-14.6347 0,-9.3333 4.256,-14.6346 4.33067,-5.3014 11.49867,-5.3014 5.6,0 9.632,3.584 v -15.3813 l 6.496,-3.0613 v 53.9093 h -6.496 v -2.9867 q -3.73334,3.8827 -9.632,3.8827 z m 0.896,-6.048 q 5.67466,0 8.736,-5.152 v -17.92 q -3.06134,-4.8533 -8.736,-4.8533 -4.85334,0 -7.46667,3.6586 -2.61333,3.584 -2.61333,10.304 0,6.048 2.688,10.0054 2.76266,3.9573 7.392,3.9573 z"
         style="fill:#2b89d6;fill-opacity:1"
         id="path134" /><path
         d="m 614.90883,1229.7306 q -4.10667,0 -7.84,-1.7173 -3.65867,-1.792 -5.97333,-4.704 l 4.62933,-3.9574 q 4.256,4.5547 9.33333,4.5547 3.21067,0 5.152,-1.1947 1.94133,-1.2693 1.94133,-3.6586 0,-1.792 -1.41866,-3.2107 -1.41867,-1.4933 -2.912,-2.1653 -1.49334,-0.7467 -4.40534,-1.8667 -5.824,-2.1653 -8.81066,-4.8533 -2.98667,-2.688 -2.98667,-7.0934 0,-4.6293 3.584,-7.3173 3.65867,-2.7627 9.25867,-2.7627 7.98933,0 12.84266,5.7494 l -4.48,3.7333 q -3.50933,-3.6587 -8.43733,-3.6587 -2.912,0 -4.62933,1.12 -1.71734,1.12 -1.71734,3.136 0,1.12 0.52267,2.0907 0.59733,0.896 2.016,1.7173 1.49333,0.8214 2.31467,1.2694 0.896,0.3733 3.21066,1.2693 6.048,2.1653 9.184,4.928 3.21067,2.7627 3.21067,7.7653 0,5.0774 -3.65867,7.9894 -3.65866,2.8373 -9.93066,2.8373 z"
         style="fill:#2b89d6;fill-opacity:1"
         id="path136" /><path
         d="m 644.45816,1228.3119 q -1.49333,1.4934 -3.65867,1.4934 -2.16533,0 -3.65866,-1.4934 -1.49333,-1.568 -1.49333,-3.584 0,-2.0906 1.49333,-3.584 1.49333,-1.568 3.65866,-1.568 2.16534,0 3.65867,1.568 1.568,1.568 1.568,3.584 0,2.016 -1.568,3.584 z"
         style="fill:#1e5b96;fill-opacity:1"
         id="path138" /><path
         d="m 681.0472,1224.4293 q -4.55467,5.3013 -12.32,5.3013 -7.76533,0 -12.32,-5.3013 -4.55466,-5.3014 -4.55466,-14.6347 0,-9.3333 4.55466,-14.6347 4.55467,-5.376 12.32,-5.376 7.76533,0 12.32,5.3014 4.55467,5.3013 4.55467,14.6346 0,9.3334 -4.55467,14.7094 z m -19.936,-4.4054 q 2.76267,3.6587 7.616,3.6587 4.85334,0 7.54134,-3.6587 2.76266,-3.7333 2.76266,-10.304 0,-6.496 -2.76266,-10.2293 -2.688,-3.7333 -7.54134,-3.7333 -4.85333,0 -7.616,3.7333 -2.688,3.6587 -2.688,10.304 0,6.496 2.688,10.2293 z"
         style="fill:#1e5b96;fill-opacity:1"
         id="path140" /><path
         d="m 695.80085,1228.8346 v -38.1547 h 6.496 v 5.0027 q 2.688,-5.8987 9.03466,-5.8987 3.584,0 5.89867,1.9414 l -0.97067,6.1226 q -2.38933,-1.6426 -5.45066,-1.6426 -3.36,0 -5.97333,2.6133 -2.53867,2.6133 -2.53867,8.512 v 21.504 z"
         style="fill:#1e5b96;fill-opacity:1"
         id="path142" /><path
         d="m 736.54433,1244.2906 -3.136,-5.0773 q 8.288,-0.448 11.424,-2.912 3.21066,-2.3894 3.21066,-6.5707 v -4.6293 q -3.36,4.6293 -9.856,4.6293 -6.72,0 -11.2,-5.2267 -4.40533,-5.2266 -4.40533,-14.784 0,-9.2586 4.33067,-14.56 4.40533,-5.376 11.49866,-5.376 5.97334,0 9.632,4.032 v -3.136 h 6.496 v 36.5867 q 0,8.736 -4.704,12.6187 -4.62933,3.8826 -13.29066,4.4053 z m 2.98666,-20.608 q 2.38934,0 4.704,-1.4187 2.38934,-1.4933 3.808,-3.9573 v -17.472 q -1.344,-2.24 -3.808,-3.6587 -2.464,-1.4186 -4.704,-1.4186 -5.07733,0 -7.76533,3.6586 -2.61333,3.584 -2.61333,10.304 0,6.496 2.83733,10.2294 2.912,3.7333 7.54133,3.7333 z"
         style="fill:#1e5b96;fill-opacity:1"
         id="path144" /></g></g><g
     aria-label="Provide a verifiable path
from source code to binary."
     style="font-style:normal;font-variant:normal;font-weight:bold;font-stretch:normal;font-size:96px;line-height:1.25;font-family:Overpass;-inkscape-font-specification:'Overpass, Bold';font-variant-ligatures:normal;font-variant-caps:normal;font-variant-numeric:normal;font-feature-settings:normal;text-align:center;letter-spacing:0px;word-spacing:0px;writing-mode:lr-tb;text-anchor:middle;fill:#2b89d6;fill-opacity:1;stroke:none"
     id="text46"><path
       d="M -377.0974,102.83466 V 31.901328 h 29.488 q 12.26133,0 18.03733,6.384 5.776,6.384001 5.776,15.605334 0,8.714667 -6.08,15.402667 -5.97867,6.688 -17.73333,6.688 h -17.328 v 26.853331 z m 30.096,-38.405331 q 5.37066,0 8.00533,-3.141333 2.63467,-3.141334 2.63467,-7.397334 0,-4.053333 -2.53334,-7.194667 -2.432,-3.242666 -8.10666,-3.242666 h -17.936 v 20.976 z"
       style="font-size:101.33333588px"
       id="path147" /><path
       d="M -313.5899,102.83466 V 51.053329 h 11.856 v 5.370667 q 3.14133,-6.586667 10.64,-6.586667 5.472,0 9.62667,3.546666 l -1.72267,10.842667 q -3.85067,-2.736 -8.816,-2.736 -4.05333,0 -6.89067,2.837334 -2.83733,2.837333 -2.83733,9.525333 v 28.981331 z"
       style="font-size:101.33333588px"
       id="path149" /><path
       d="m -251.83832,104.05066 q -10.944,0 -17.328,-7.194663 -6.384,-7.194667 -6.384,-19.861334 0,-12.666667 6.384,-19.861334 6.384,-7.296 17.328,-7.296 10.944,0 17.328,7.296 6.48533,7.194667 6.48533,19.861334 0,12.666667 -6.384,19.861334 -6.384,7.194663 -17.42933,7.194663 z m 0,-11.34933 q 5.57333,0 8.71467,-4.154667 3.24266,-4.154667 3.24266,-11.552 0,-7.397334 -3.24266,-11.653334 -3.14134,-4.256 -8.71467,-4.256 -5.37067,0 -8.61333,4.357333 -3.24267,4.256001 -3.24267,11.552001 0,7.296 3.14133,11.552 3.24267,4.154667 8.71467,4.154667 z"
       style="font-size:101.33333588px"
       id="path151" /><path
       d="m -202.13432,102.83466 -18.94933,-51.781331 h 12.05866 l 11.45067,32.325334 q 1.216,4.053333 1.41867,4.661333 0.608,-2.634666 1.41866,-4.661333 l 11.248,-32.325334 h 12.05867 l -18.94933,51.781331 z"
       style="font-size:101.33333588px"
       id="path153" /><path
       d="m -150.34665,41.933329 q -2.02667,2.026666 -4.96534,2.026666 -2.93866,0 -5.06666,-2.026666 -2.02667,-2.128001 -2.02667,-5.066667 0,-2.938667 2.02667,-4.965334 2.128,-2.026666 5.06666,-2.026666 2.93867,0 4.96534,2.026666 2.02666,2.026667 2.02666,4.965334 0,2.938666 -2.02666,5.066667 z m -10.944,60.901331 V 51.053329 h 11.856 v 51.781331 z"
       style="font-size:101.33333588px"
       id="path155" /><path
       d="m -115.13015,104.05066 q -9.93067,0 -15.70667,-7.194663 -5.776,-7.194667 -5.776,-19.962668 0,-12.464 5.97867,-19.76 5.97866,-7.296 15.504,-7.296 7.49866,0 11.65333,4.864 V 35.042662 l 11.856,-5.370667 v 73.162665 h -11.856 v -3.74933 q -3.85067,4.96533 -11.65333,4.96533 z m 1.824,-11.34933 q 6.58666,0 9.82933,-4.965334 V 66.050662 q -3.344,-4.965333 -9.82933,-4.965333 -5.472,0 -8.512,4.154667 -2.93867,4.053333 -2.93867,11.653333 0,7.194667 3.04,11.552001 3.04,4.256 8.41067,4.256 z"
       style="font-size:101.33333588px"
       id="path157" /><path
       d="m -55.104404,104.05066 q -11.045334,0 -17.530667,-7.194663 -6.384,-7.296001 -6.384,-19.962668 0,-12.565333 6.485333,-19.76 6.485334,-7.296 17.429334,-7.296 9.930667,0 16.213334,6.181333 6.384,6.181334 6.384,18.138667 0,4.154667 -0.405334,7.296001 h -34.352 q 0.304,5.472 3.749333,8.816 3.546667,3.344 8.410667,3.344 6.890667,0 10.944,-5.370667 l 7.498667,7.701334 q -6.789333,8.106663 -18.442667,8.106663 z M -67.163071,71.623996 h 22.901334 q -0.405333,-5.573334 -3.445334,-8.410667 -3.04,-2.938667 -7.397333,-2.938667 -5.066667,0 -8.410667,2.837334 -3.242667,2.736 -3.648,8.512 z"
       style="font-size:101.33333588px"
       id="path159" /><path
       d="m 33.9502,102.83466 v -4.154663 q -5.168,5.370663 -13.781334,5.370663 -8.309333,0 -13.5786669,-4.458663 -5.1680001,-4.56 -5.1680001,-12.768001 0,-8.410667 5.8773335,-12.768 5.9786665,-4.357333 14.3893335,-4.357333 7.397334,0 12.261334,2.736 v -2.736 q 0,-4.965334 -2.533334,-7.194667 -2.432,-2.229334 -7.6,-2.229334 -8.410667,0 -15.4026668,4.864 L 4.7661991,55.511996 q 8.4106669,-5.674667 20.2666669,-5.674667 4.053334,0 7.093334,0.709333 3.141333,0.608 6.384,2.533333 3.344,1.925334 5.168,6.080001 1.824,4.154666 1.824,10.336 v 33.338664 z m -11.552,-9.22133 q 6.789333,0 11.552,-4.965334 v -6.688 q -4.458667,-2.128 -10.336,-2.128 -4.762667,0 -7.701334,1.722667 -2.938667,1.722667 -2.938667,5.269333 0,3.141334 2.432,4.965334 2.432,1.824 6.992001,1.824 z"
       style="font-size:101.33333588px"
       id="path161" /><path
       d="M 98.303179,102.83466 79.353845,51.053329 h 12.058667 l 11.450668,32.325334 q 1.216,4.053333 1.41867,4.661333 0.608,-2.634666 1.41866,-4.661333 l 11.248,-32.325334 h 12.05867 l -18.94933,51.781331 z"
       style="font-size:101.33333588px"
       id="path163" /><path
       d="m 159.8331,104.05066 q -11.04534,0 -17.53067,-7.194663 -6.384,-7.296001 -6.384,-19.962668 0,-12.565333 6.48533,-19.76 6.48534,-7.296 17.42934,-7.296 9.93066,0 16.21333,6.181333 6.384,6.181334 6.384,18.138667 0,4.154667 -0.40533,7.296001 h -34.352 q 0.304,5.472 3.74933,8.816 3.54667,3.344 8.41067,3.344 6.89066,0 10.944,-5.370667 l 7.49866,7.701334 q -6.78933,8.106663 -18.44266,8.106663 z M 147.77443,71.623996 h 22.90133 q -0.40533,-5.573334 -3.44533,-8.410667 -3.04,-2.938667 -7.39733,-2.938667 -5.06667,0 -8.41067,2.837334 -3.24267,2.736 -3.648,8.512 z"
       style="font-size:101.33333588px"
       id="path165" /><path
       d="M 194.66014,102.83466 V 51.053329 h 11.856 v 5.370667 q 3.14133,-6.586667 10.64,-6.586667 5.472,0 9.62666,3.546666 l -1.72266,10.842667 q -3.85067,-2.736 -8.816,-2.736 -4.05334,0 -6.89067,2.837334 -2.83733,2.837333 -2.83733,9.525333 v 28.981331 z"
       style="font-size:101.33333588px"
       id="path167" /><path
       d="m 246.47628,41.933329 q -2.02666,2.026666 -4.96533,2.026666 -2.93867,0 -5.06667,-2.026666 -2.02666,-2.128001 -2.02666,-5.066667 0,-2.938667 2.02666,-4.965334 2.128,-2.026666 5.06667,-2.026666 2.93867,0 4.96533,2.026666 2.02667,2.026667 2.02667,4.965334 0,2.938666 -2.02667,5.066667 z m -10.944,60.901331 V 51.053329 h 11.856 v 51.781331 z"
       style="font-size:101.33333588px"
       id="path169" /><path
       d="m 309.05278,41.933329 q -2.02666,2.026666 -4.96533,2.026666 -2.93867,0 -5.06667,-2.026666 -2.02666,-2.128001 -2.02666,-5.066667 0,-2.938667 2.02666,-4.965334 2.128,-2.026666 5.06667,-2.026666 2.93867,0 4.96533,2.026666 2.02667,2.026667 2.02667,4.965334 0,2.938666 -2.02667,5.066667 z m -31.008,19.456 v 41.445331 h -11.856 V 61.389329 h -7.49866 v -10.336 h 7.49866 v -8.106667 q 0,-12.261334 12.26134,-12.261334 6.18133,0 10.944,2.432 v 9.728001 q -4.15467,-1.722667 -7.39734,-1.722667 -3.952,0 -3.952,4.053333 v 5.877334 h 11.34934 v 10.336 z m 20.064,41.445331 V 51.053329 h 11.856 v 51.781331 z"
       style="font-size:101.33333588px"
       id="path171" /><path
       d="m 354.77314,102.83466 v -4.154663 q -5.168,5.370663 -13.78134,5.370663 -8.30933,0 -13.57866,-4.458663 -5.168,-4.56 -5.168,-12.768001 0,-8.410667 5.87733,-12.768 5.97867,-4.357333 14.38933,-4.357333 7.39734,0 12.26134,2.736 v -2.736 q 0,-4.965334 -2.53334,-7.194667 -2.432,-2.229334 -7.6,-2.229334 -8.41066,0 -15.40266,4.864 l -3.648,-9.626666 q 8.41066,-5.674667 20.26666,-5.674667 4.05334,0 7.09334,0.709333 3.14133,0.608 6.384,2.533333 3.344,1.925334 5.168,6.080001 1.824,4.154666 1.824,10.336 v 33.338664 z m -11.552,-9.22133 q 6.78933,0 11.552,-4.965334 v -6.688 q -4.45867,-2.128 -10.336,-2.128 -4.76267,0 -7.70134,1.722667 -2.93866,1.722667 -2.93866,5.269333 0,3.141334 2.432,4.965334 2.432,1.824 6.992,1.824 z"
       style="font-size:101.33333588px"
       id="path173" /><path
       d="m 403.81055,104.05066 q -7.296,0 -11.45066,-5.167997 v 3.951997 h -11.856 V 35.042662 l 11.856,-5.370667 v 25.232001 q 4.35733,-5.066667 11.65333,-5.066667 9.62667,0 15.504,7.296 5.97867,7.296 5.97867,19.76 0,12.970667 -5.776,20.064001 -5.776,7.09333 -15.90934,7.09333 z m -1.41866,-11.34933 q 5.472,0 8.30933,-4.154667 2.93867,-4.256 2.93867,-11.653334 0,-7.701333 -2.93867,-11.754667 -2.93867,-4.053333 -8.30933,-4.053333 -6.688,0 -10.032,5.066667 v 21.584 q 3.24266,4.965334 10.032,4.965334 z"
       style="font-size:101.33333588px"
       id="path175" /><path
       d="M 438.6043,102.83466 V 35.245328 l 11.856,-5.573333 v 73.162665 z"
       style="font-size:101.33333588px"
       id="path177" /><path
       d="m 487.5831,104.05066 q -11.04534,0 -17.53067,-7.194663 -6.384,-7.296001 -6.384,-19.962668 0,-12.565333 6.48533,-19.76 6.48534,-7.296 17.42934,-7.296 9.93066,0 16.21333,6.181333 6.384,6.181334 6.384,18.138667 0,4.154667 -0.40533,7.296001 h -34.352 q 0.304,5.472 3.74933,8.816 3.54667,3.344 8.41067,3.344 6.89066,0 10.944,-5.370667 l 7.49866,7.701334 q -6.78933,8.106663 -18.44266,8.106663 z M 475.52443,71.623996 h 22.90133 q -0.40533,-5.573334 -3.44533,-8.410667 -3.04,-2.938667 -7.39733,-2.938667 -5.06667,0 -8.41067,2.837334 -3.24267,2.736 -3.648,8.512 z"
       style="font-size:101.33333588px"
       id="path179" /><path
       d="m 570.76037,104.05066 q -7.49867,0 -11.75467,-5.370663 v 19.050663 l -11.856,5.472 V 51.053329 h 11.856 v 3.952 q 4.256,-5.168 11.856,-5.168 9.82933,0 15.504,7.194667 5.776,7.093333 5.776,19.962667 0,12.565333 -5.87733,19.861334 -5.87734,7.194663 -15.504,7.194663 z M 569.0377,92.70133 q 5.37067,0 8.30933,-4.053334 2.93867,-4.053333 2.93867,-11.653333 0,-7.194667 -2.93867,-11.552001 -2.93866,-4.357333 -8.30933,-4.357333 -6.58667,0 -10.032,5.066667 v 21.482667 q 3.54667,5.066667 10.032,5.066667 z"
       style="font-size:101.33333588px"
       id="path181" /><path
       d="m 634.23145,102.83466 v -4.154663 q -5.168,5.370663 -13.78133,5.370663 -8.30934,0 -13.57867,-4.458663 -5.168,-4.56 -5.168,-12.768001 0,-8.410667 5.87733,-12.768 5.97867,-4.357333 14.38934,-4.357333 7.39733,0 12.26133,2.736 v -2.736 q 0,-4.965334 -2.53333,-7.194667 -2.432,-2.229334 -7.6,-2.229334 -8.41067,0 -15.40267,4.864 l -3.648,-9.626666 q 8.41067,-5.674667 20.26667,-5.674667 4.05333,0 7.09333,0.709333 3.14133,0.608 6.384,2.533333 3.344,1.925334 5.168,6.080001 1.824,4.154666 1.824,10.336 v 33.338664 z m -11.552,-9.22133 q 6.78933,0 11.552,-4.965334 v -6.688 q -4.45867,-2.128 -10.336,-2.128 -4.76267,0 -7.70133,1.722667 -2.93867,1.722667 -2.93867,5.269333 0,3.141334 2.432,4.965334 2.432,1.824 6.992,1.824 z"
       style="font-size:101.33333588px"
       id="path183" /><path
       d="m 675.16214,104.05066 q -12.05867,0 -12.05867,-13.274664 V 61.389329 h -7.70133 v -10.336 h 7.70133 V 35.346662 l 11.856,-5.674667 v 21.381334 h 11.95734 v 10.336 H 674.95947 V 88.44533 q 0,4.965333 4.35734,4.965333 3.952,0 8.10666,-2.330667 L 686.00481,101.72 q -4.45867,2.33066 -10.84267,2.33066 z"
       style="font-size:101.33333588px"
       id="path185" /><path
       d="M 699.14964,102.83466 V 35.143995 l 11.856,-5.472 v 26.245334 q 5.06667,-6.08 13.68,-6.08 8.10667,0 13.17333,5.066667 5.168,5.066666 5.168,16.112 v 31.818664 h -11.856 V 72.941329 q 0,-11.856 -9.62666,-11.856 -10.53867,0 -10.53867,11.653334 v 30.095997 z"
       style="font-size:101.33333588px"
       id="path187" /><path
       d="m -432.97086,188.056 v 41.44533 h -11.856 V 188.056 h -7.49867 V 177.72 h 7.49867 v -8.10667 q 0,-12.26133 12.26133,-12.26133 6.18133,0 10.944,2.432 v 9.728 q -4.15467,-1.72267 -7.39733,-1.72267 -3.952,0 -3.952,4.05334 V 177.72 h 11.34933 v 10.336 z"
       style="font-size:101.33333588px"
       id="path189" /><path
       d="M -413.04303,229.50133 V 177.72 h 11.856 v 5.37067 q 3.14133,-6.58667 10.64,-6.58667 5.472,0 9.62667,3.54667 l -1.72267,10.84266 q -3.85067,-2.736 -8.816,-2.736 -4.05333,0 -6.89067,2.83734 -2.83733,2.83733 -2.83733,9.52533 v 28.98133 z"
       style="font-size:101.33333588px"
       id="path191" /><path
       d="m -351.29144,230.71733 q -10.94401,0 -17.32801,-7.19466 -6.384,-7.19467 -6.384,-19.86134 0,-12.66666 6.384,-19.86133 6.384,-7.296 17.32801,-7.296 10.944,0 17.328,7.296 6.48533,7.19467 6.48533,19.86133 0,12.66667 -6.384,19.86134 -6.384,7.19466 -17.42933,7.19466 z m 0,-11.34933 q 5.57333,0 8.71466,-4.15467 3.24267,-4.15466 3.24267,-11.552 0,-7.39733 -3.24267,-11.65333 -3.14133,-4.256 -8.71466,-4.256 -5.37067,0 -8.61334,4.35733 -3.24267,4.256 -3.24267,11.552 0,7.296 3.14134,11.552 3.24266,4.15467 8.71467,4.15467 z"
       style="font-size:101.33333588px"
       id="path193" /><path
       d="m -254.07635,229.50133 v -29.69066 q 0,-12.05867 -8.816,-12.05867 -4.56,0 -7.19467,3.14133 -2.53333,3.04 -2.53333,9.12 v 29.488 h -11.856 v -29.69066 q 0,-12.05867 -8.816,-12.05867 -4.56,0 -7.19467,3.14133 -2.53333,3.04 -2.53333,9.12 v 29.488 h -11.856 V 177.72 h 11.856 v 4.76267 q 4.45866,-5.97867 12.66666,-5.97867 9.52534,0 13.57867,7.296 4.96533,-7.296 15.60533,-7.296 8.71467,0 13.78134,4.864 5.168,4.76267 5.168,15.09867 v 33.03466 z"
       style="font-size:101.33333588px"
       id="path195" /><path
       d="m -186.23686,230.71733 q -6.28267,0 -11.856,-2.432 -5.472,-2.432 -8.30933,-6.48533 l 8.10666,-6.89067 q 5.472,5.472 12.05867,5.472 8.41067,0 8.41067,-5.06666 0,-1.72267 -1.52,-3.14134 -1.41867,-1.41866 -3.14134,-2.128 -1.62133,-0.81066 -5.37066,-2.33066 -8.91734,-2.93867 -13.072,-6.688 -4.05334,-3.85067 -4.05334,-10.13334 0,-6.78933 5.168,-10.53866 5.26934,-3.85067 13.27467,-3.85067 11.75467,0 18.544,8.00533 l -8.208,6.688 q -4.56,-4.35733 -10.336,-4.35733 -6.992,0 -6.992,4.256 0,2.128 2.53333,3.648 2.63467,1.52 7.6,3.14133 8.41067,2.83734 12.66667,6.688 4.35733,3.85067 4.35733,10.74134 0,7.39733 -5.37066,11.45066 -5.37067,3.952 -14.49067,3.952 z"
       style="font-size:101.33333588px"
       id="path197" /><path
       d="m -132.98937,230.71733 q -10.944,0 -17.328,-7.19466 -6.384,-7.19467 -6.384,-19.86134 0,-12.66666 6.384,-19.86133 6.384,-7.296 17.328,-7.296 10.944,0 17.328,7.296 6.48533,7.19467 6.48533,19.86133 0,12.66667 -6.384,19.86134 -6.384,7.19466 -17.42933,7.19466 z m 0,-11.34933 q 5.57333,0 8.71466,-4.15467 3.24267,-4.15466 3.24267,-11.552 0,-7.39733 -3.24267,-11.65333 -3.14133,-4.256 -8.71466,-4.256 -5.37067,0 -8.61334,4.35733 -3.24266,4.256 -3.24266,11.552 0,7.296 3.14133,11.552 3.24267,4.15467 8.71467,4.15467 z"
       style="font-size:101.33333588px"
       id="path199" /><path
       d="M -65.059624,229.50133 V 224.536 q -4.864,6.18133 -13.578667,6.18133 -8.106667,0 -13.274667,-5.06666 -5.168,-5.168 -5.168,-16.21334 V 177.72 h 11.856 v 29.58933 q 0,12.05867 9.728,12.05867 10.437334,0 10.437334,-11.856 V 177.72 h 11.856 v 51.78133 z"
       style="font-size:101.33333588px"
       id="path201" /><path
       d="M -37.990948,229.50133 V 177.72 h 11.856 v 5.37067 q 3.141334,-6.58667 10.640001,-6.58667 5.472,0 9.6266664,3.54667 l -1.7226667,10.84266 q -3.8506667,-2.736 -8.8159997,-2.736 -4.053334,0 -6.890667,2.83734 -2.837334,2.83733 -2.837334,9.52533 v 28.98133 z"
       style="font-size:101.33333588px"
       id="path203" /><path
       d="m 23.152656,230.71733 q -10.64,0 -16.9226669,-7.19466 -6.18133352,-7.19467 -6.18133352,-19.86134 0,-12.66666 6.18133352,-19.86133 6.2826669,-7.296 16.9226669,-7.296 16.010667,0 20.570667,14.288 l -11.248,3.74933 q -2.533333,-6.688 -8.917333,-6.688 -5.370667,0 -8.410667,4.256 -3.04,4.256 -3.04,11.552 0,7.19467 2.938666,11.45067 3.04,4.15467 8.106667,4.15467 7.194667,0 9.424,-7.49867 l 11.349334,3.44533 q -4.458667,15.504 -20.773334,15.504 z"
       style="font-size:101.33333588px"
       id="path205" /><path
       d="m 77.598729,230.71733 q -11.045333,0 -17.530667,-7.19466 -6.384,-7.296 -6.384,-19.96267 0,-12.56533 6.485334,-19.76 6.485333,-7.296 17.429333,-7.296 9.930667,0 16.213334,6.18133 6.383997,6.18134 6.383997,18.13867 0,4.15467 -0.40533,7.296 H 65.438729 q 0.304,5.472 3.749333,8.816 3.546667,3.344 8.410667,3.344 6.890667,0 10.944001,-5.37067 l 7.498666,7.70134 q -6.789333,8.10666 -18.442667,8.10666 z M 65.540062,198.29067 h 22.901334 q -0.405333,-5.57334 -3.445333,-8.41067 -3.04,-2.93867 -7.397334,-2.93867 -5.066666,0 -8.410667,2.83734 -3.242666,2.736 -3.648,8.512 z"
       style="font-size:101.33333588px"
       id="path207" /><path
       d="m 157.73597,230.71733 q -10.64,0 -16.92267,-7.19466 -6.18133,-7.19467 -6.18133,-19.86134 0,-12.66666 6.18133,-19.86133 6.28267,-7.296 16.92267,-7.296 16.01067,0 20.57067,14.288 l -11.248,3.74933 q -2.53334,-6.688 -8.91734,-6.688 -5.37066,0 -8.41066,4.256 -3.04,4.256 -3.04,11.552 0,7.19467 2.93866,11.45067 3.04,4.15467 8.10667,4.15467 7.19467,0 9.424,-7.49867 l 11.34933,3.44533 q -4.45866,15.504 -20.77333,15.504 z"
       style="font-size:101.33333588px"
       id="path209" /><path
       d="m 211.97941,230.71733 q -10.944,0 -17.328,-7.19466 -6.384,-7.19467 -6.384,-19.86134 0,-12.66666 6.384,-19.86133 6.384,-7.296 17.328,-7.296 10.944,0 17.328,7.296 6.48533,7.19467 6.48533,19.86133 0,12.66667 -6.384,19.86134 -6.384,7.19466 -17.42933,7.19466 z m 0,-11.34933 q 5.57333,0 8.71466,-4.15467 3.24267,-4.15466 3.24267,-11.552 0,-7.39733 -3.24267,-11.65333 -3.14133,-4.256 -8.71466,-4.256 -5.37067,0 -8.61334,4.35733 -3.24266,4.256 -3.24266,11.552 0,7.296 3.14133,11.552 3.24267,4.15467 8.71467,4.15467 z"
       style="font-size:101.33333588px"
       id="path211" /><path
       d="m 267.34382,230.71733 q -9.93066,0 -15.70666,-7.19466 -5.776,-7.19467 -5.776,-19.96267 0,-12.464 5.97866,-19.76 5.97867,-7.296 15.504,-7.296 7.49867,0 11.65334,4.864 v -19.65867 l 11.856,-5.37067 v 73.16267 h -11.856 V 225.752 q -3.85067,4.96533 -11.65334,4.96533 z m 1.824,-11.34933 q 6.58667,0 9.82934,-4.96533 v -21.68534 q -3.344,-4.96533 -9.82934,-4.96533 -5.472,0 -8.512,4.15467 -2.93866,4.05333 -2.93866,11.65333 0,7.19467 3.04,11.552 3.04,4.256 8.41066,4.256 z"
       style="font-size:101.33333588px"
       id="path213" /><path
       d="m 327.36957,230.71733 q -11.04533,0 -17.53066,-7.19466 -6.384,-7.296 -6.384,-19.96267 0,-12.56533 6.48533,-19.76 6.48533,-7.296 17.42933,-7.296 9.93067,0 16.21334,6.18133 6.384,6.18134 6.384,18.13867 0,4.15467 -0.40534,7.296 h -34.352 q 0.304,5.472 3.74934,8.816 3.54666,3.344 8.41066,3.344 6.89067,0 10.944,-5.37067 l 7.49867,7.70134 q -6.78933,8.10666 -18.44267,8.10666 z m -12.05866,-32.42666 h 22.90133 q -0.40533,-5.57334 -3.44533,-8.41067 -3.04,-2.93867 -7.39734,-2.93867 -5.06666,0 -8.41066,2.83734 -3.24267,2.736 -3.648,8.512 z"
       style="font-size:101.33333588px"
       id="path215" /><path
       d="m 402.13618,230.71733 q -12.05867,0 -12.05867,-13.27466 V 188.056 h -7.70133 V 177.72 h 7.70133 v -15.70667 l 11.856,-5.67467 V 177.72 h 11.95733 v 10.336 h -11.95733 v 27.056 q 0,4.96533 4.35733,4.96533 3.952,0 8.10667,-2.33066 l -1.41867,10.64 q -4.45866,2.33066 -10.84266,2.33066 z"
       style="font-size:101.33333588px"
       id="path217" /><path
       d="m 446.51066,230.71733 q -10.944,0 -17.328,-7.19466 -6.384,-7.19467 -6.384,-19.86134 0,-12.66666 6.384,-19.86133 6.384,-7.296 17.328,-7.296 10.944,0 17.328,7.296 6.48533,7.19467 6.48533,19.86133 0,12.66667 -6.384,19.86134 -6.384,7.19466 -17.42933,7.19466 z m 0,-11.34933 q 5.57333,0 8.71466,-4.15467 3.24267,-4.15466 3.24267,-11.552 0,-7.39733 -3.24267,-11.65333 -3.14133,-4.256 -8.71466,-4.256 -5.37067,0 -8.61334,4.35733 -3.24266,4.256 -3.24266,11.552 0,7.296 3.14133,11.552 3.24267,4.15467 8.71467,4.15467 z"
       style="font-size:101.33333588px"
       id="path219" /><path
       d="m 530.97197,230.71733 q -7.296,0 -11.45067,-5.168 v 3.952 h -11.856 v -67.792 l 11.856,-5.37067 v 25.23201 q 4.35734,-5.06667 11.65334,-5.06667 9.62666,0 15.504,7.296 5.97866,7.296 5.97866,19.76 0,12.97067 -5.776,20.064 -5.776,7.09333 -15.90933,7.09333 z M 529.5533,219.368 q 5.472,0 8.30934,-4.15467 2.93866,-4.256 2.93866,-11.65333 0,-7.70133 -2.93866,-11.75467 -2.93867,-4.05333 -8.30934,-4.05333 -6.688,0 -10.032,5.06667 v 21.584 q 3.24267,4.96533 10.032,4.96533 z"
       style="font-size:101.33333588px"
       id="path221" /><path
       d="m 576.30439,168.6 q -2.02667,2.02667 -4.96534,2.02667 -2.93866,0 -5.06666,-2.02667 -2.02667,-2.128 -2.02667,-5.06667 0,-2.93867 2.02667,-4.96533 2.128,-2.02667 5.06666,-2.02667 2.93867,0 4.96534,2.02667 2.02666,2.02666 2.02666,4.96533 0,2.93867 -2.02666,5.06667 z m -10.944,60.90133 V 177.72 h 11.856 v 51.78133 z"
       style="font-size:101.33333588px"
       id="path223" /><path
       d="m 624.59289,229.50133 v -29.69066 q 0,-12.05867 -9.62667,-12.05867 -10.53867,0 -10.53867,11.856 v 29.89333 h -11.856 V 177.72 h 11.856 v 4.864 q 5.06667,-6.08 13.68,-6.08 8.10667,0 13.17334,5.06667 5.168,5.06666 5.168,16.112 v 31.81866 z"
       style="font-size:101.33333588px"
       id="path225" /><path
       d="m 680.64293,229.50133 v -4.15466 q -5.168,5.37066 -13.78134,5.37066 -8.30933,0 -13.57866,-4.45866 -5.168,-4.56 -5.168,-12.768 0,-8.41067 5.87733,-12.768 5.97867,-4.35734 14.38933,-4.35734 7.39734,0 12.26134,2.736 v -2.736 q 0,-4.96533 -2.53334,-7.19466 -2.432,-2.22934 -7.6,-2.22934 -8.41066,0 -15.40266,4.864 l -3.648,-9.62666 q 8.41066,-5.67467 20.26666,-5.67467 4.05334,0 7.09334,0.70933 3.14133,0.608 6.384,2.53334 3.344,1.92533 5.168,6.08 1.824,4.15466 1.824,10.336 v 33.33866 z m -11.552,-9.22133 q 6.78933,0 11.552,-4.96533 v -6.688 q -4.45867,-2.128 -10.336,-2.128 -4.76267,0 -7.70134,1.72266 -2.93866,1.72267 -2.93866,5.26934 0,3.14133 2.432,4.96533 2.432,1.824 6.992,1.824 z"
       style="font-size:101.33333588px"
       id="path227" /><path
       d="M 706.37368,229.50133 V 177.72 h 11.856 v 5.37067 q 3.14133,-6.58667 10.64,-6.58667 5.472,0 9.62666,3.54667 l -1.72266,10.84266 q -3.85067,-2.736 -8.816,-2.736 -4.05334,0 -6.89067,2.83734 -2.83733,2.83733 -2.83733,9.52533 v 28.98133 z"
       style="font-size:101.33333588px"
       id="path229" /><path
       d="m 754.51805,249.16 8.00534,-20.46933 -19.456,-50.97067 h 11.95733 l 12.05867,31.81867 q 0.912,2.22933 1.52,4.66133 0.50666,-2.22933 1.41866,-4.66133 l 12.16,-31.81867 h 11.95734 l -27.36,71.44 z"
       style="font-size:101.33333588px"
       id="path231" /><path
       d="m 814.27309,228.488 q -2.33066,2.22933 -5.776,2.22933 -3.44533,0 -5.776,-2.22933 -2.33066,-2.33067 -2.33066,-5.67467 0,-3.344 2.33066,-5.57333 2.33067,-2.33067 5.776,-2.33067 3.44534,0 5.776,2.33067 2.33067,2.33067 2.33067,5.57333 0,3.344 -2.33067,5.67467 z"
       style="font-size:101.33333588px"
       id="path233" /></g><flowRoot
     xml:space="preserve"
     id="flowRoot4566"
     style="fill:black;fill-opacity:1;stroke:none;font-family:Overpass;font-style:normal;font-weight:normal;font-size:40px;line-height:1.25;letter-spacing:0px;word-spacing:0px;-inkscape-font-specification:Overpass;font-stretch:normal;font-variant:normal"><flowRegion
       id="flowRegion4568"><rect
         id="rect4570"
         width="17.362246"
         height="53.167377"
         x="89.093697"
         y="1177.7676" /></flowRegion><flowPara
       id="flowPara4572" /></flowRoot></svg>